<mxfile host="app.diagrams.net" modified="2021-03-26T22:24:13.352Z" agent="5.0 (Windows NT 10.0; Win64; x64) AppleWebKit/537.36 (KHTML, like Gecko) Chrome/88.0.4324.192 Safari/537.36 OPR/74.0.3911.218" etag="Ju1VbKf1Ho4eTyInJyqZ" version="14.5.1" type="github">
  <diagram id="R2lEEEUBdFMjLlhIrx00" name="Page-1">
    <mxGraphModel dx="1730" dy="1010" grid="1" gridSize="10" guides="1" tooltips="1" connect="1" arrows="1" fold="1" page="1" pageScale="1" pageWidth="850" pageHeight="1100" math="0" shadow="0" extFonts="Permanent Marker^https://fonts.googleapis.com/css?family=Permanent+Marker">
      <root>
        <mxCell id="0" />
        <mxCell id="1" parent="0" />
        <mxCell id="sfkYfHs7pwcDidGryHkF-24" value="Uczniowie" style="shape=table;startSize=30;container=1;collapsible=1;childLayout=tableLayout;fixedRows=1;rowLines=0;fontStyle=1;align=center;resizeLast=1;" vertex="1" parent="1">
          <mxGeometry x="60" y="320" width="180" height="160" as="geometry" />
        </mxCell>
        <mxCell id="sfkYfHs7pwcDidGryHkF-25" value="" style="shape=partialRectangle;collapsible=0;dropTarget=0;pointerEvents=0;fillColor=none;top=0;left=0;bottom=1;right=0;points=[[0,0.5],[1,0.5]];portConstraint=eastwest;" vertex="1" parent="sfkYfHs7pwcDidGryHkF-24">
          <mxGeometry y="30" width="180" height="30" as="geometry" />
        </mxCell>
        <mxCell id="sfkYfHs7pwcDidGryHkF-26" value="PK" style="shape=partialRectangle;connectable=0;fillColor=none;top=0;left=0;bottom=0;right=0;fontStyle=1;overflow=hidden;" vertex="1" parent="sfkYfHs7pwcDidGryHkF-25">
          <mxGeometry width="30" height="30" as="geometry" />
        </mxCell>
        <mxCell id="sfkYfHs7pwcDidGryHkF-27" value="ID_Ucznia" style="shape=partialRectangle;connectable=0;fillColor=none;top=0;left=0;bottom=0;right=0;align=left;spacingLeft=6;fontStyle=5;overflow=hidden;" vertex="1" parent="sfkYfHs7pwcDidGryHkF-25">
          <mxGeometry x="30" width="150" height="30" as="geometry" />
        </mxCell>
        <mxCell id="sfkYfHs7pwcDidGryHkF-28" value="" style="shape=partialRectangle;collapsible=0;dropTarget=0;pointerEvents=0;fillColor=none;top=0;left=0;bottom=0;right=0;points=[[0,0.5],[1,0.5]];portConstraint=eastwest;" vertex="1" parent="sfkYfHs7pwcDidGryHkF-24">
          <mxGeometry y="60" width="180" height="30" as="geometry" />
        </mxCell>
        <mxCell id="sfkYfHs7pwcDidGryHkF-29" value="" style="shape=partialRectangle;connectable=0;fillColor=none;top=0;left=0;bottom=0;right=0;editable=1;overflow=hidden;" vertex="1" parent="sfkYfHs7pwcDidGryHkF-28">
          <mxGeometry width="30" height="30" as="geometry" />
        </mxCell>
        <mxCell id="sfkYfHs7pwcDidGryHkF-30" value="Imię i Nazwisko" style="shape=partialRectangle;connectable=0;fillColor=none;top=0;left=0;bottom=0;right=0;align=left;spacingLeft=6;overflow=hidden;" vertex="1" parent="sfkYfHs7pwcDidGryHkF-28">
          <mxGeometry x="30" width="150" height="30" as="geometry" />
        </mxCell>
        <mxCell id="sfkYfHs7pwcDidGryHkF-31" value="" style="shape=partialRectangle;collapsible=0;dropTarget=0;pointerEvents=0;fillColor=none;top=0;left=0;bottom=0;right=0;points=[[0,0.5],[1,0.5]];portConstraint=eastwest;" vertex="1" parent="sfkYfHs7pwcDidGryHkF-24">
          <mxGeometry y="90" width="180" height="30" as="geometry" />
        </mxCell>
        <mxCell id="sfkYfHs7pwcDidGryHkF-32" value="" style="shape=partialRectangle;connectable=0;fillColor=none;top=0;left=0;bottom=0;right=0;editable=1;overflow=hidden;" vertex="1" parent="sfkYfHs7pwcDidGryHkF-31">
          <mxGeometry width="30" height="30" as="geometry" />
        </mxCell>
        <mxCell id="sfkYfHs7pwcDidGryHkF-33" value="Data urodzenia" style="shape=partialRectangle;connectable=0;fillColor=none;top=0;left=0;bottom=0;right=0;align=left;spacingLeft=6;overflow=hidden;" vertex="1" parent="sfkYfHs7pwcDidGryHkF-31">
          <mxGeometry x="30" width="150" height="30" as="geometry" />
        </mxCell>
        <mxCell id="sfkYfHs7pwcDidGryHkF-34" value="" style="shape=partialRectangle;collapsible=0;dropTarget=0;pointerEvents=0;fillColor=none;top=0;left=0;bottom=0;right=0;points=[[0,0.5],[1,0.5]];portConstraint=eastwest;" vertex="1" parent="sfkYfHs7pwcDidGryHkF-24">
          <mxGeometry y="120" width="180" height="30" as="geometry" />
        </mxCell>
        <mxCell id="sfkYfHs7pwcDidGryHkF-35" value="" style="shape=partialRectangle;connectable=0;fillColor=none;top=0;left=0;bottom=0;right=0;editable=1;overflow=hidden;" vertex="1" parent="sfkYfHs7pwcDidGryHkF-34">
          <mxGeometry width="30" height="30" as="geometry" />
        </mxCell>
        <mxCell id="sfkYfHs7pwcDidGryHkF-36" value="Klasa" style="shape=partialRectangle;connectable=0;fillColor=none;top=0;left=0;bottom=0;right=0;align=left;spacingLeft=6;overflow=hidden;" vertex="1" parent="sfkYfHs7pwcDidGryHkF-34">
          <mxGeometry x="30" width="150" height="30" as="geometry" />
        </mxCell>
        <mxCell id="sfkYfHs7pwcDidGryHkF-37" value="Nauczyciele" style="shape=table;startSize=30;container=1;collapsible=1;childLayout=tableLayout;fixedRows=1;rowLines=0;fontStyle=1;align=center;resizeLast=1;" vertex="1" parent="1">
          <mxGeometry x="610" y="260" width="180" height="160" as="geometry" />
        </mxCell>
        <mxCell id="sfkYfHs7pwcDidGryHkF-38" value="" style="shape=partialRectangle;collapsible=0;dropTarget=0;pointerEvents=0;fillColor=none;top=0;left=0;bottom=1;right=0;points=[[0,0.5],[1,0.5]];portConstraint=eastwest;" vertex="1" parent="sfkYfHs7pwcDidGryHkF-37">
          <mxGeometry y="30" width="180" height="30" as="geometry" />
        </mxCell>
        <mxCell id="sfkYfHs7pwcDidGryHkF-39" value="PK" style="shape=partialRectangle;connectable=0;fillColor=none;top=0;left=0;bottom=0;right=0;fontStyle=1;overflow=hidden;" vertex="1" parent="sfkYfHs7pwcDidGryHkF-38">
          <mxGeometry width="30" height="30" as="geometry" />
        </mxCell>
        <mxCell id="sfkYfHs7pwcDidGryHkF-40" value="ID_Nauczyciela" style="shape=partialRectangle;connectable=0;fillColor=none;top=0;left=0;bottom=0;right=0;align=left;spacingLeft=6;fontStyle=5;overflow=hidden;" vertex="1" parent="sfkYfHs7pwcDidGryHkF-38">
          <mxGeometry x="30" width="150" height="30" as="geometry" />
        </mxCell>
        <mxCell id="sfkYfHs7pwcDidGryHkF-41" value="" style="shape=partialRectangle;collapsible=0;dropTarget=0;pointerEvents=0;fillColor=none;top=0;left=0;bottom=0;right=0;points=[[0,0.5],[1,0.5]];portConstraint=eastwest;" vertex="1" parent="sfkYfHs7pwcDidGryHkF-37">
          <mxGeometry y="60" width="180" height="30" as="geometry" />
        </mxCell>
        <mxCell id="sfkYfHs7pwcDidGryHkF-42" value="" style="shape=partialRectangle;connectable=0;fillColor=none;top=0;left=0;bottom=0;right=0;editable=1;overflow=hidden;" vertex="1" parent="sfkYfHs7pwcDidGryHkF-41">
          <mxGeometry width="30" height="30" as="geometry" />
        </mxCell>
        <mxCell id="sfkYfHs7pwcDidGryHkF-43" value="Imię i Nazwisko" style="shape=partialRectangle;connectable=0;fillColor=none;top=0;left=0;bottom=0;right=0;align=left;spacingLeft=6;overflow=hidden;" vertex="1" parent="sfkYfHs7pwcDidGryHkF-41">
          <mxGeometry x="30" width="150" height="30" as="geometry" />
        </mxCell>
        <mxCell id="sfkYfHs7pwcDidGryHkF-44" value="" style="shape=partialRectangle;collapsible=0;dropTarget=0;pointerEvents=0;fillColor=none;top=0;left=0;bottom=0;right=0;points=[[0,0.5],[1,0.5]];portConstraint=eastwest;" vertex="1" parent="sfkYfHs7pwcDidGryHkF-37">
          <mxGeometry y="90" width="180" height="30" as="geometry" />
        </mxCell>
        <mxCell id="sfkYfHs7pwcDidGryHkF-45" value="" style="shape=partialRectangle;connectable=0;fillColor=none;top=0;left=0;bottom=0;right=0;editable=1;overflow=hidden;" vertex="1" parent="sfkYfHs7pwcDidGryHkF-44">
          <mxGeometry width="30" height="30" as="geometry" />
        </mxCell>
        <mxCell id="sfkYfHs7pwcDidGryHkF-46" value="Przedmiot" style="shape=partialRectangle;connectable=0;fillColor=none;top=0;left=0;bottom=0;right=0;align=left;spacingLeft=6;overflow=hidden;" vertex="1" parent="sfkYfHs7pwcDidGryHkF-44">
          <mxGeometry x="30" width="150" height="30" as="geometry" />
        </mxCell>
        <mxCell id="sfkYfHs7pwcDidGryHkF-47" value="" style="shape=partialRectangle;collapsible=0;dropTarget=0;pointerEvents=0;fillColor=none;top=0;left=0;bottom=0;right=0;points=[[0,0.5],[1,0.5]];portConstraint=eastwest;" vertex="1" parent="sfkYfHs7pwcDidGryHkF-37">
          <mxGeometry y="120" width="180" height="30" as="geometry" />
        </mxCell>
        <mxCell id="sfkYfHs7pwcDidGryHkF-48" value="" style="shape=partialRectangle;connectable=0;fillColor=none;top=0;left=0;bottom=0;right=0;editable=1;overflow=hidden;" vertex="1" parent="sfkYfHs7pwcDidGryHkF-47">
          <mxGeometry width="30" height="30" as="geometry" />
        </mxCell>
        <mxCell id="sfkYfHs7pwcDidGryHkF-49" value="" style="shape=partialRectangle;connectable=0;fillColor=none;top=0;left=0;bottom=0;right=0;align=left;spacingLeft=6;overflow=hidden;" vertex="1" parent="sfkYfHs7pwcDidGryHkF-47">
          <mxGeometry x="30" width="150" height="30" as="geometry" />
        </mxCell>
        <mxCell id="sfkYfHs7pwcDidGryHkF-50" value="Przedmioty" style="shape=table;startSize=30;container=1;collapsible=1;childLayout=tableLayout;fixedRows=1;rowLines=0;fontStyle=1;align=center;resizeLast=1;" vertex="1" parent="1">
          <mxGeometry x="335" y="320" width="180" height="160" as="geometry" />
        </mxCell>
        <mxCell id="sfkYfHs7pwcDidGryHkF-51" value="" style="shape=partialRectangle;collapsible=0;dropTarget=0;pointerEvents=0;fillColor=none;top=0;left=0;bottom=1;right=0;points=[[0,0.5],[1,0.5]];portConstraint=eastwest;" vertex="1" parent="sfkYfHs7pwcDidGryHkF-50">
          <mxGeometry y="30" width="180" height="30" as="geometry" />
        </mxCell>
        <mxCell id="sfkYfHs7pwcDidGryHkF-52" value="PK" style="shape=partialRectangle;connectable=0;fillColor=none;top=0;left=0;bottom=0;right=0;fontStyle=1;overflow=hidden;" vertex="1" parent="sfkYfHs7pwcDidGryHkF-51">
          <mxGeometry width="30" height="30" as="geometry" />
        </mxCell>
        <mxCell id="sfkYfHs7pwcDidGryHkF-53" value="ID_przedmiotu" style="shape=partialRectangle;connectable=0;fillColor=none;top=0;left=0;bottom=0;right=0;align=left;spacingLeft=6;fontStyle=5;overflow=hidden;" vertex="1" parent="sfkYfHs7pwcDidGryHkF-51">
          <mxGeometry x="30" width="150" height="30" as="geometry" />
        </mxCell>
        <mxCell id="sfkYfHs7pwcDidGryHkF-54" value="" style="shape=partialRectangle;collapsible=0;dropTarget=0;pointerEvents=0;fillColor=none;top=0;left=0;bottom=0;right=0;points=[[0,0.5],[1,0.5]];portConstraint=eastwest;" vertex="1" parent="sfkYfHs7pwcDidGryHkF-50">
          <mxGeometry y="60" width="180" height="30" as="geometry" />
        </mxCell>
        <mxCell id="sfkYfHs7pwcDidGryHkF-55" value="" style="shape=partialRectangle;connectable=0;fillColor=none;top=0;left=0;bottom=0;right=0;editable=1;overflow=hidden;" vertex="1" parent="sfkYfHs7pwcDidGryHkF-54">
          <mxGeometry width="30" height="30" as="geometry" />
        </mxCell>
        <mxCell id="sfkYfHs7pwcDidGryHkF-56" value="Nazwa" style="shape=partialRectangle;connectable=0;fillColor=none;top=0;left=0;bottom=0;right=0;align=left;spacingLeft=6;overflow=hidden;" vertex="1" parent="sfkYfHs7pwcDidGryHkF-54">
          <mxGeometry x="30" width="150" height="30" as="geometry" />
        </mxCell>
        <mxCell id="sfkYfHs7pwcDidGryHkF-57" value="" style="shape=partialRectangle;collapsible=0;dropTarget=0;pointerEvents=0;fillColor=none;top=0;left=0;bottom=0;right=0;points=[[0,0.5],[1,0.5]];portConstraint=eastwest;" vertex="1" parent="sfkYfHs7pwcDidGryHkF-50">
          <mxGeometry y="90" width="180" height="30" as="geometry" />
        </mxCell>
        <mxCell id="sfkYfHs7pwcDidGryHkF-58" value="" style="shape=partialRectangle;connectable=0;fillColor=none;top=0;left=0;bottom=0;right=0;editable=1;overflow=hidden;" vertex="1" parent="sfkYfHs7pwcDidGryHkF-57">
          <mxGeometry width="30" height="30" as="geometry" />
        </mxCell>
        <mxCell id="sfkYfHs7pwcDidGryHkF-59" value="Liczba godzin" style="shape=partialRectangle;connectable=0;fillColor=none;top=0;left=0;bottom=0;right=0;align=left;spacingLeft=6;overflow=hidden;" vertex="1" parent="sfkYfHs7pwcDidGryHkF-57">
          <mxGeometry x="30" width="150" height="30" as="geometry" />
        </mxCell>
        <mxCell id="sfkYfHs7pwcDidGryHkF-60" value="" style="shape=partialRectangle;collapsible=0;dropTarget=0;pointerEvents=0;fillColor=none;top=0;left=0;bottom=0;right=0;points=[[0,0.5],[1,0.5]];portConstraint=eastwest;" vertex="1" parent="sfkYfHs7pwcDidGryHkF-50">
          <mxGeometry y="120" width="180" height="30" as="geometry" />
        </mxCell>
        <mxCell id="sfkYfHs7pwcDidGryHkF-61" value="" style="shape=partialRectangle;connectable=0;fillColor=none;top=0;left=0;bottom=0;right=0;editable=1;overflow=hidden;" vertex="1" parent="sfkYfHs7pwcDidGryHkF-60">
          <mxGeometry width="30" height="30" as="geometry" />
        </mxCell>
        <mxCell id="sfkYfHs7pwcDidGryHkF-62" value="ID_Nauczyciela" style="shape=partialRectangle;connectable=0;fillColor=none;top=0;left=0;bottom=0;right=0;align=left;spacingLeft=6;overflow=hidden;" vertex="1" parent="sfkYfHs7pwcDidGryHkF-60">
          <mxGeometry x="30" width="150" height="30" as="geometry" />
        </mxCell>
        <mxCell id="sfkYfHs7pwcDidGryHkF-63" value="Klasa" style="shape=table;startSize=30;container=1;collapsible=1;childLayout=tableLayout;fixedRows=1;rowLines=0;fontStyle=1;align=center;resizeLast=1;" vertex="1" parent="1">
          <mxGeometry x="50" y="570" width="180" height="190" as="geometry" />
        </mxCell>
        <mxCell id="sfkYfHs7pwcDidGryHkF-64" value="" style="shape=partialRectangle;collapsible=0;dropTarget=0;pointerEvents=0;fillColor=none;top=0;left=0;bottom=1;right=0;points=[[0,0.5],[1,0.5]];portConstraint=eastwest;" vertex="1" parent="sfkYfHs7pwcDidGryHkF-63">
          <mxGeometry y="30" width="180" height="30" as="geometry" />
        </mxCell>
        <mxCell id="sfkYfHs7pwcDidGryHkF-65" value="PK" style="shape=partialRectangle;connectable=0;fillColor=none;top=0;left=0;bottom=0;right=0;fontStyle=1;overflow=hidden;" vertex="1" parent="sfkYfHs7pwcDidGryHkF-64">
          <mxGeometry width="30" height="30" as="geometry" />
        </mxCell>
        <mxCell id="sfkYfHs7pwcDidGryHkF-66" value="ID_Klasy" style="shape=partialRectangle;connectable=0;fillColor=none;top=0;left=0;bottom=0;right=0;align=left;spacingLeft=6;fontStyle=5;overflow=hidden;" vertex="1" parent="sfkYfHs7pwcDidGryHkF-64">
          <mxGeometry x="30" width="150" height="30" as="geometry" />
        </mxCell>
        <mxCell id="sfkYfHs7pwcDidGryHkF-67" value="" style="shape=partialRectangle;collapsible=0;dropTarget=0;pointerEvents=0;fillColor=none;top=0;left=0;bottom=0;right=0;points=[[0,0.5],[1,0.5]];portConstraint=eastwest;" vertex="1" parent="sfkYfHs7pwcDidGryHkF-63">
          <mxGeometry y="60" width="180" height="30" as="geometry" />
        </mxCell>
        <mxCell id="sfkYfHs7pwcDidGryHkF-68" value="" style="shape=partialRectangle;connectable=0;fillColor=none;top=0;left=0;bottom=0;right=0;editable=1;overflow=hidden;" vertex="1" parent="sfkYfHs7pwcDidGryHkF-67">
          <mxGeometry width="30" height="30" as="geometry" />
        </mxCell>
        <mxCell id="sfkYfHs7pwcDidGryHkF-69" value="Nazwa" style="shape=partialRectangle;connectable=0;fillColor=none;top=0;left=0;bottom=0;right=0;align=left;spacingLeft=6;overflow=hidden;" vertex="1" parent="sfkYfHs7pwcDidGryHkF-67">
          <mxGeometry x="30" width="150" height="30" as="geometry" />
        </mxCell>
        <mxCell id="sfkYfHs7pwcDidGryHkF-70" value="" style="shape=partialRectangle;collapsible=0;dropTarget=0;pointerEvents=0;fillColor=none;top=0;left=0;bottom=0;right=0;points=[[0,0.5],[1,0.5]];portConstraint=eastwest;" vertex="1" parent="sfkYfHs7pwcDidGryHkF-63">
          <mxGeometry y="90" width="180" height="60" as="geometry" />
        </mxCell>
        <mxCell id="sfkYfHs7pwcDidGryHkF-71" value="" style="shape=partialRectangle;connectable=0;fillColor=none;top=0;left=0;bottom=0;right=0;editable=1;overflow=hidden;" vertex="1" parent="sfkYfHs7pwcDidGryHkF-70">
          <mxGeometry width="30" height="60" as="geometry" />
        </mxCell>
        <mxCell id="sfkYfHs7pwcDidGryHkF-72" value="Row 2" style="shape=partialRectangle;connectable=0;fillColor=none;top=0;left=0;bottom=0;right=0;align=left;spacingLeft=6;overflow=hidden;" vertex="1" parent="sfkYfHs7pwcDidGryHkF-70">
          <mxGeometry x="30" width="150" height="60" as="geometry" />
        </mxCell>
        <mxCell id="sfkYfHs7pwcDidGryHkF-73" value="" style="shape=partialRectangle;collapsible=0;dropTarget=0;pointerEvents=0;fillColor=none;top=0;left=0;bottom=0;right=0;points=[[0,0.5],[1,0.5]];portConstraint=eastwest;" vertex="1" parent="sfkYfHs7pwcDidGryHkF-63">
          <mxGeometry y="150" width="180" height="30" as="geometry" />
        </mxCell>
        <mxCell id="sfkYfHs7pwcDidGryHkF-74" value="" style="shape=partialRectangle;connectable=0;fillColor=none;top=0;left=0;bottom=0;right=0;editable=1;overflow=hidden;" vertex="1" parent="sfkYfHs7pwcDidGryHkF-73">
          <mxGeometry width="30" height="30" as="geometry" />
        </mxCell>
        <mxCell id="sfkYfHs7pwcDidGryHkF-75" value="Row 3" style="shape=partialRectangle;connectable=0;fillColor=none;top=0;left=0;bottom=0;right=0;align=left;spacingLeft=6;overflow=hidden;" vertex="1" parent="sfkYfHs7pwcDidGryHkF-73">
          <mxGeometry x="30" width="150" height="30" as="geometry" />
        </mxCell>
        <mxCell id="sfkYfHs7pwcDidGryHkF-96" value="" style="edgeStyle=entityRelationEdgeStyle;fontSize=12;html=1;endArrow=ERzeroToMany;endFill=1;startArrow=ERzeroToMany;entryX=-0.002;entryY=0.06;entryDx=0;entryDy=0;entryPerimeter=0;exitX=1.022;exitY=0.084;exitDx=0;exitDy=0;exitPerimeter=0;" edge="1" parent="1" source="sfkYfHs7pwcDidGryHkF-24" target="sfkYfHs7pwcDidGryHkF-50">
          <mxGeometry width="100" height="100" relative="1" as="geometry">
            <mxPoint x="250" y="180" as="sourcePoint" />
            <mxPoint x="350" y="80" as="targetPoint" />
          </mxGeometry>
        </mxCell>
        <mxCell id="sfkYfHs7pwcDidGryHkF-100" value="" style="group;rotation=270;" vertex="1" connectable="0" parent="1">
          <mxGeometry x="190" y="-30" width="185" height="290" as="geometry" />
        </mxCell>
        <mxCell id="sfkYfHs7pwcDidGryHkF-104" value="" style="group" vertex="1" connectable="0" parent="sfkYfHs7pwcDidGryHkF-100">
          <mxGeometry x="-10" y="90" width="180" height="200" as="geometry" />
        </mxCell>
        <mxCell id="sfkYfHs7pwcDidGryHkF-79" value="Ocena" style="shape=table;startSize=30;container=1;collapsible=1;childLayout=tableLayout;fixedRows=1;rowLines=0;fontStyle=1;align=center;resizeLast=1;" vertex="1" parent="sfkYfHs7pwcDidGryHkF-104">
          <mxGeometry width="180" height="200" as="geometry" />
        </mxCell>
        <mxCell id="sfkYfHs7pwcDidGryHkF-80" value="" style="shape=partialRectangle;collapsible=0;dropTarget=0;pointerEvents=0;fillColor=none;top=0;left=0;bottom=1;right=0;points=[[0,0.5],[1,0.5]];portConstraint=eastwest;" vertex="1" parent="sfkYfHs7pwcDidGryHkF-79">
          <mxGeometry y="30" width="180" height="30" as="geometry" />
        </mxCell>
        <mxCell id="sfkYfHs7pwcDidGryHkF-81" value="PK" style="shape=partialRectangle;connectable=0;fillColor=none;top=0;left=0;bottom=0;right=0;fontStyle=1;overflow=hidden;" vertex="1" parent="sfkYfHs7pwcDidGryHkF-80">
          <mxGeometry width="30" height="30" as="geometry" />
        </mxCell>
        <mxCell id="sfkYfHs7pwcDidGryHkF-82" value="ID_Oceny" style="shape=partialRectangle;connectable=0;fillColor=none;top=0;left=0;bottom=0;right=0;align=left;spacingLeft=6;fontStyle=5;overflow=hidden;" vertex="1" parent="sfkYfHs7pwcDidGryHkF-80">
          <mxGeometry x="30" width="150" height="30" as="geometry" />
        </mxCell>
        <mxCell id="sfkYfHs7pwcDidGryHkF-83" value="" style="shape=partialRectangle;collapsible=0;dropTarget=0;pointerEvents=0;fillColor=none;top=0;left=0;bottom=0;right=0;points=[[0,0.5],[1,0.5]];portConstraint=eastwest;" vertex="1" parent="sfkYfHs7pwcDidGryHkF-79">
          <mxGeometry y="60" width="180" height="30" as="geometry" />
        </mxCell>
        <mxCell id="sfkYfHs7pwcDidGryHkF-84" value="" style="shape=partialRectangle;connectable=0;fillColor=none;top=0;left=0;bottom=0;right=0;editable=1;overflow=hidden;" vertex="1" parent="sfkYfHs7pwcDidGryHkF-83">
          <mxGeometry width="30" height="30" as="geometry" />
        </mxCell>
        <mxCell id="sfkYfHs7pwcDidGryHkF-85" value="Ocena" style="shape=partialRectangle;connectable=0;fillColor=none;top=0;left=0;bottom=0;right=0;align=left;spacingLeft=6;overflow=hidden;" vertex="1" parent="sfkYfHs7pwcDidGryHkF-83">
          <mxGeometry x="30" width="150" height="30" as="geometry" />
        </mxCell>
        <mxCell id="sfkYfHs7pwcDidGryHkF-86" value="" style="shape=partialRectangle;collapsible=0;dropTarget=0;pointerEvents=0;fillColor=none;top=0;left=0;bottom=0;right=0;points=[[0,0.5],[1,0.5]];portConstraint=eastwest;" vertex="1" parent="sfkYfHs7pwcDidGryHkF-79">
          <mxGeometry y="90" width="180" height="30" as="geometry" />
        </mxCell>
        <mxCell id="sfkYfHs7pwcDidGryHkF-87" value="" style="shape=partialRectangle;connectable=0;fillColor=none;top=0;left=0;bottom=0;right=0;editable=1;overflow=hidden;" vertex="1" parent="sfkYfHs7pwcDidGryHkF-86">
          <mxGeometry width="30" height="30" as="geometry" />
        </mxCell>
        <mxCell id="sfkYfHs7pwcDidGryHkF-88" value="Data wystawienia" style="shape=partialRectangle;connectable=0;fillColor=none;top=0;left=0;bottom=0;right=0;align=left;spacingLeft=6;overflow=hidden;" vertex="1" parent="sfkYfHs7pwcDidGryHkF-86">
          <mxGeometry x="30" width="150" height="30" as="geometry" />
        </mxCell>
        <mxCell id="sfkYfHs7pwcDidGryHkF-89" value="" style="shape=partialRectangle;collapsible=0;dropTarget=0;pointerEvents=0;fillColor=none;top=0;left=0;bottom=0;right=0;points=[[0,0.5],[1,0.5]];portConstraint=eastwest;" vertex="1" parent="sfkYfHs7pwcDidGryHkF-79">
          <mxGeometry y="120" width="180" height="30" as="geometry" />
        </mxCell>
        <mxCell id="sfkYfHs7pwcDidGryHkF-90" value="" style="shape=partialRectangle;connectable=0;fillColor=none;top=0;left=0;bottom=0;right=0;editable=1;overflow=hidden;" vertex="1" parent="sfkYfHs7pwcDidGryHkF-89">
          <mxGeometry width="30" height="30" as="geometry" />
        </mxCell>
        <mxCell id="sfkYfHs7pwcDidGryHkF-91" value="ID_Przedmiotu" style="shape=partialRectangle;connectable=0;fillColor=none;top=0;left=0;bottom=0;right=0;align=left;spacingLeft=6;overflow=hidden;" vertex="1" parent="sfkYfHs7pwcDidGryHkF-89">
          <mxGeometry x="30" width="150" height="30" as="geometry" />
        </mxCell>
        <mxCell id="sfkYfHs7pwcDidGryHkF-103" value="ID_Ucznia" style="shape=partialRectangle;connectable=0;fillColor=none;top=0;left=0;bottom=0;right=0;align=left;spacingLeft=6;overflow=hidden;" vertex="1" parent="sfkYfHs7pwcDidGryHkF-104">
          <mxGeometry x="30" y="150" width="150" height="30" as="geometry" />
        </mxCell>
        <mxCell id="sfkYfHs7pwcDidGryHkF-101" value="" style="edgeStyle=entityRelationEdgeStyle;fontSize=12;html=1;endArrow=ERoneToMany;exitX=0.5;exitY=1;exitDx=0;exitDy=0;entryX=0.5;entryY=0;entryDx=0;entryDy=0;" edge="1" parent="1" source="sfkYfHs7pwcDidGryHkF-24" target="sfkYfHs7pwcDidGryHkF-63">
          <mxGeometry width="100" height="100" relative="1" as="geometry">
            <mxPoint x="170" y="260" as="sourcePoint" />
            <mxPoint x="60" y="380" as="targetPoint" />
          </mxGeometry>
        </mxCell>
        <mxCell id="sfkYfHs7pwcDidGryHkF-102" value="" style="edgeStyle=entityRelationEdgeStyle;fontSize=12;html=1;endArrow=ERmandOne;startArrow=ERmandOne;exitX=1;exitY=0.5;exitDx=0;exitDy=0;entryX=0;entryY=0.125;entryDx=0;entryDy=0;entryPerimeter=0;" edge="1" parent="1" source="sfkYfHs7pwcDidGryHkF-51" target="sfkYfHs7pwcDidGryHkF-37">
          <mxGeometry width="100" height="100" relative="1" as="geometry">
            <mxPoint x="440" y="430" as="sourcePoint" />
            <mxPoint x="580" y="280" as="targetPoint" />
          </mxGeometry>
        </mxCell>
        <mxCell id="sfkYfHs7pwcDidGryHkF-105" value="" style="edgeStyle=entityRelationEdgeStyle;fontSize=12;html=1;endArrow=ERzeroToMany;startArrow=ERzeroToOne;exitX=0;exitY=0;exitDx=0;exitDy=0;entryX=0;entryY=0.5;entryDx=0;entryDy=0;" edge="1" parent="1" source="sfkYfHs7pwcDidGryHkF-24" target="sfkYfHs7pwcDidGryHkF-80">
          <mxGeometry width="100" height="100" relative="1" as="geometry">
            <mxPoint x="40" y="240" as="sourcePoint" />
            <mxPoint x="180" y="80" as="targetPoint" />
          </mxGeometry>
        </mxCell>
        <mxCell id="sfkYfHs7pwcDidGryHkF-106" value="" style="edgeStyle=entityRelationEdgeStyle;fontSize=12;html=1;endArrow=ERzeroToMany;startArrow=ERzeroToOne;entryX=1;entryY=0.5;entryDx=0;entryDy=0;exitX=0.5;exitY=0;exitDx=0;exitDy=0;" edge="1" parent="1" source="sfkYfHs7pwcDidGryHkF-50" target="sfkYfHs7pwcDidGryHkF-80">
          <mxGeometry width="100" height="100" relative="1" as="geometry">
            <mxPoint x="420" y="310" as="sourcePoint" />
            <mxPoint x="500" y="200" as="targetPoint" />
          </mxGeometry>
        </mxCell>
      </root>
    </mxGraphModel>
  </diagram>
</mxfile>
